<svg xmlns="http://www.w3.org/2000/svg" viewBox="0 0 48 48" width="48" height="48">
  <circle cx="24" cy="24" r="22" fill="#000000"/>
  <path fill="#FF004F" d="M32,18v4c-2.5,0-4.5-1-6-2.5v8.5c0,5-4,9-9,9s-9-4-9-9s4-9,9-9c0.5,0,1,0,1.5,0.1v4.1c-0.5-0.1-1-0.2-1.5-0.2c-2.8,0-5,2.2-5,5s2.2,5,5,5s5-2.2,5-5V12h4c0,3.3,2.7,6,6,6"/>
  <path fill="#00F2EA" d="M32,18v4c-2.5,0-4.5-1-6-2.5v8.5c0,5-4,9-9,9s-9-4-9-9s4-9,9-9c0.5,0,1,0,1.5,0.1v4.1c-0.5-0.1-1-0.2-1.5-0.2c-2.8,0-5,2.2-5,5s2.2,5,5,5s5-2.2,5-5V12h4c0,3.3,2.7,6,6,6"/>
</svg>